<svg width="349.75" height="349.749" viewBox="0 0 349.75 349.749" xmlns="http://www.w3.org/2000/svg" xmlns:xlink="http://www.w3.org/1999/xlink" id="Capa_1" overflow="hidden"><g><g><path d="M174.881 0C78.441 0 0 78.441 0 174.875 0 271.309 78.441 349.749 174.887 349.749 271.309 349.749 349.75 271.309 349.75 174.875 349.75 78.441 271.309 0 174.881 0ZM127.08 141.626 127.432 141.242C128.858 140.206 129.552 138.585 129.293 136.888 125.771 115.697 128.083 106.861 128.863 104.642 135.018 85.751 154.339 77.014 158.131 75.465 158.939 75.147 160.431 74.696 161.944 74.462L162.395 74.357 165.499 74.192 165.523 74.384 166.243 74.315C166.883 74.246 167.495 74.162 168.264 74L168.949 73.854C169.555 73.863 177.076 74.814 188.251 78.24L196.016 80.912C210.217 85.106 216.75 92.909 217.963 94.482 229.336 107.366 226.285 126.821 223.469 137.266 223.151 138.497 223.343 139.764 224.039 140.815L224.682 141.608C225.505 142.728 226.244 147.046 223.776 156.217 223.307 159.003 222.275 161.267 220.75 162.792 220.186 163.411 219.789 164.2 219.646 165.092 215.802 187.625 195.615 212.833 174.331 212.833 156.271 212.833 135.66 189.643 131.952 165.11 131.811 164.194 131.43 163.386 130.796 162.693 129.253 161.092 128.268 158.787 127.674 155.376 125.861 148.958 125.684 143.785 127.08 141.626ZM86.539 239.346C87.322 238.355 91.688 233.239 100.518 229.87 108.282 227.485 127.474 221.108 137.964 213.507 138.456 213.242 138.94 212.726 139.342 212.318 140.312 211.273 141.795 209.676 143.551 208.048L144.53 207.118 145.527 208.055C154.769 216.768 164.994 221.541 174.323 221.541 184.123 221.541 194.226 217.302 203.564 209.268L204.296 208.643 206.277 209.604C208.048 211.225 211.111 213.453 212.534 214.131L214.359 215.021 214.168 215.218 214.979 215.71C216.702 216.749 218.576 217.758 220.774 218.845 222.996 219.824 224.857 220.544 226.778 221.181 228.4 221.709 237.035 224.604 246.858 229.144L248.732 229.708C258.339 233.389 262.603 238.499 263.023 239.033 274.426 255.93 278.797 287.462 280.425 305.032 250.641 329.213 213.183 342.525 174.894 342.525 136.586 342.525 99.123 329.213 69.353 305.019 70.947 287.498 75.282 256.068 86.539 239.346Z" stroke="none" stroke-width="1" stroke-linecap="butt" fill="#012169" fill-opacity="1"/></g></g><g></g><g></g><g></g><g></g><g></g><g></g><g></g><g></g><g></g><g></g><g></g><g></g><g></g><g></g><g></g></svg>